<?xml version="1.0" standalone="no"?>
<!DOCTYPE svg PUBLIC "-//W3C//DTD SVG 20010904//EN"
 "http://www.w3.org/TR/2001/REC-SVG-20010904/DTD/svg10.dtd">
<svg version="1.0" xmlns="http://www.w3.org/2000/svg"
 width="689.000000pt" height="920.000000pt" viewBox="0 0 689.000000 920.000000"
 preserveAspectRatio="xMidYMid meet">

<g transform="translate(0.000000,920.000000) scale(0.100000,-0.100000)"
fill="#000000" stroke="none">
<path d="M2785 7511 c-11 -5 -38 -11 -60 -14 -56 -8 -106 -22 -134 -36 -12 -7
-25 -11 -27 -8 -5 5 -119 -32 -140 -45 -6 -4 -24 -9 -40 -12 -37 -7 -128 -39
-146 -52 -7 -5 -29 -18 -48 -28 -110 -59 -247 -171 -320 -261 -58 -72 -90
-114 -90 -120 0 -4 -8 -19 -18 -33 -30 -43 -96 -173 -116 -227 -10 -27 -24
-64 -32 -82 -8 -17 -17 -46 -20 -65 -4 -18 -10 -38 -15 -43 -12 -16 -38 -185
-49 -325 -5 -69 -15 -156 -21 -195 -6 -38 -12 -88 -13 -110 -3 -37 14 -179 29
-251 6 -29 5 -32 -25 -38 -18 -3 -58 -6 -89 -6 -50 0 -61 -4 -83 -27 -47 -51
-73 -263 -42 -355 19 -57 53 -133 85 -188 11 -19 33 -64 50 -100 51 -111 80
-163 120 -215 21 -28 42 -70 48 -94 16 -74 99 -138 194 -150 50 -6 52 -7 58
-42 3 -20 4 -107 3 -193 -1 -128 1 -156 12 -156 18 0 18 -25 0 -43 -9 -9 -30
-13 -55 -11 -28 2 -41 -2 -45 -13 -9 -21 36 -191 65 -245 5 -10 9 -22 9 -28 0
-6 11 -28 25 -50 14 -23 21 -42 15 -45 -6 -3 -10 -13 -10 -21 0 -8 -9 -23 -20
-34 -11 -11 -20 -29 -20 -41 0 -11 -5 -17 -10 -14 -6 4 -8 11 -5 16 4 5 2 9
-4 9 -5 0 -13 -5 -17 -11 -4 -8 -9 -7 -16 2 -9 13 -3 -14 10 -50 3 -9 1 -12
-6 -7 -7 4 -12 16 -12 26 0 29 -17 33 -24 5 -4 -14 -11 -23 -16 -20 -5 3 -19
-8 -31 -25 -13 -16 -29 -30 -38 -30 -8 0 -12 -3 -8 -6 3 -4 14 -3 24 1 10 5
23 9 28 9 6 1 10 8 9 16 -1 12 11 15 55 14 31 -1 58 -2 61 -3 11 -2 9 -50 -2
-57 -8 -5 -9 -2 -5 10 4 11 3 15 -4 11 -6 -4 -8 -13 -5 -20 2 -7 0 -17 -5 -22
-5 -5 0 -9 13 -10 12 -1 24 -7 28 -13 5 -7 11 -6 20 4 14 18 34 11 26 -10 -3
-8 -1 -14 5 -14 6 0 7 -6 3 -12 -4 -8 -3 -10 2 -5 5 5 9 12 9 15 0 4 4 13 9
21 6 10 5 12 -2 7 -7 -4 -12 -4 -13 1 -5 44 -4 61 3 57 4 -3 6 -10 3 -15 -4
-5 -2 -9 4 -9 5 0 12 6 14 13 4 9 6 9 6 -1 1 -7 -6 -15 -14 -18 -14 -6 -13 -8
2 -20 10 -7 28 -14 41 -14 16 0 22 -5 20 -17 -2 -10 7 -22 22 -30 14 -7 19
-13 13 -13 -7 0 -13 -4 -13 -9 0 -5 8 -8 17 -7 9 2 33 -13 53 -33 59 -58 91
-82 103 -74 7 3 9 3 6 -1 -7 -7 9 -29 69 -91 l34 -35 -28 10 c-32 13 -54 7
-54 -15 0 -12 8 -14 39 -9 32 5 46 2 71 -16 20 -14 29 -28 26 -37 -4 -9 1 -17
14 -20 11 -3 20 -11 20 -18 0 -7 7 -18 15 -25 13 -11 13 -15 3 -21 -10 -7 -9
-9 4 -9 9 0 27 -20 41 -45 19 -34 22 -45 11 -45 -8 0 -14 -4 -14 -9 0 -4 10
-6 23 -4 21 4 32 -10 94 -109 87 -141 199 -339 318 -563 27 -49 59 -107 72
-127 12 -21 23 -41 23 -46 0 -4 13 -29 30 -55 37 -59 46 -93 30 -112 -7 -9
-11 -17 -9 -19 21 -16 123 -68 159 -79 149 -49 203 -58 353 -58 140 -1 184 5
245 34 68 31 94 72 114 179 50 274 49 320 -6 477 -45 128 -204 445 -237 471
-3 3 -12 17 -20 32 -8 14 -33 56 -56 93 -36 59 -46 96 -24 95 6 -1 71 -84 154
-199 92 -127 222 -303 236 -317 10 -12 16 -12 28 -3 11 10 11 14 1 20 -7 5 -8
9 -2 9 5 0 16 -6 23 -13 7 -6 11 -7 10 -2 -8 34 48 64 66 35 3 -5 13 -10 21
-10 26 0 15 20 -20 37 -19 9 -37 25 -40 36 -3 11 -11 17 -18 14 -19 -7 -57 26
-69 62 -6 18 -16 28 -22 24 -6 -3 -7 -1 -3 5 4 7 2 20 -3 29 -7 12 -11 13 -11
5 0 -26 -70 71 -70 97 0 24 21 9 27 -19 3 -16 9 -30 14 -30 12 0 11 4 -8 45
-10 20 -22 34 -29 31 -8 -3 -11 1 -8 9 3 8 -13 41 -37 75 -41 59 -57 74 -45
45 4 -12 2 -13 -14 -2 -11 6 -18 18 -15 25 3 7 1 11 -4 8 -8 -5 -71 75 -71 91
0 4 5 1 11 -7 9 -13 10 -13 6 0 -2 8 -11 14 -21 12 -10 -2 -16 4 -16 14 0 15
-4 14 -26 -7 l-27 -24 27 42 c14 24 26 49 26 58 0 8 5 15 10 15 6 0 10 7 10
16 0 8 5 12 10 9 6 -3 10 1 10 9 0 22 16 28 33 11 13 -13 16 -13 27 0 7 8 18
15 25 15 6 0 18 12 25 28 7 15 15 22 17 15 6 -16 63 25 63 44 0 17 50 94 71
110 19 14 32 53 18 53 -5 0 -3 13 5 28 8 16 23 51 34 78 10 27 46 95 80 151
64 106 73 129 46 119 -9 -3 -18 -6 -20 -6 -3 0 -2 -5 2 -12 4 -7 3 -8 -5 -4
-13 8 -44 -12 -36 -23 7 -12 -26 -125 -42 -143 -8 -9 -22 -14 -30 -11 -12 5
-14 1 -8 -18 4 -16 3 -20 -3 -11 -7 11 -11 8 -16 -12 -3 -14 -16 -31 -27 -37
-12 -6 -19 -7 -16 -1 10 15 -42 34 -61 23 -9 -5 -16 -12 -14 -15 1 -3 -1 -5
-5 -3 -5 1 -7 5 -6 8 1 4 -7 5 -17 2 -11 -3 -20 -10 -20 -15 0 -5 5 -6 10 -3
20 12 10 -2 -22 -31 -24 -21 -28 -23 -13 -5 18 22 18 24 2 18 -11 -4 -16 -3
-12 3 3 5 -4 10 -17 9 -62 -2 -83 16 -67 57 7 16 11 33 11 37 -1 4 10 0 25
-10 15 -10 24 -13 21 -8 -12 20 18 45 50 41 17 -2 29 0 27 5 -3 4 -1 11 5 14
8 5 7 11 -1 21 -8 10 -8 14 0 14 6 0 11 6 11 14 0 8 7 16 15 19 12 5 12 1 4
-21 l-10 -27 21 23 c11 12 18 26 15 31 -3 5 -1 12 5 16 5 3 10 11 10 16 0 6
-5 7 -12 3 -7 -4 -8 -3 -4 5 4 6 11 9 16 6 15 -9 26 20 19 50 -5 22 -7 24 -9
10 -1 -11 -1 -27 0 -35 1 -9 -7 -4 -19 10 -12 14 -20 20 -19 15 5 -17 -39 -54
-50 -43 -7 7 -10 4 -9 -8 1 -11 -4 -19 -13 -19 -8 0 -17 -3 -20 -7 -3 -4 -12
-3 -20 2 -13 9 -13 10 0 10 18 0 45 39 41 60 -2 10 2 9 12 -4 11 -15 16 -16
22 -6 5 8 4 15 -3 18 -16 5 4 24 44 42 19 8 30 19 27 27 -3 8 3 13 16 13 13 0
23 8 27 24 3 13 15 26 26 29 11 3 17 10 13 16 -3 6 -2 11 3 11 6 0 13 11 16
25 4 14 11 25 16 25 6 0 10 5 10 11 0 5 -4 7 -10 4 -5 -3 -10 -2 -10 3 0 5 16
9 35 10 20 1 33 -3 30 -7 -3 -5 0 -11 7 -13 7 -3 13 -19 14 -36 1 -17 8 -38
17 -46 8 -9 21 -29 28 -45 8 -17 20 -32 29 -34 8 -2 -4 -9 -27 -16 -23 -6 -45
-15 -47 -20 -8 -12 27 -8 37 4 5 6 6 1 4 -10 -2 -11 -9 -19 -16 -17 -7 1 -10
-2 -6 -8 3 -6 12 -7 18 -3 7 4 18 8 24 9 14 2 49 34 37 34 -4 0 4 13 19 28 15
16 24 31 20 35 -3 4 -1 7 6 7 7 0 9 5 6 10 -3 5 -1 10 5 10 6 0 9 4 6 9 -4 5
-3 11 1 13 5 1 16 19 26 38 l18 35 -6 -35 c-3 -25 -2 -31 5 -20 5 8 10 24 10
35 0 11 7 33 15 48 8 15 12 40 9 55 -4 19 1 34 16 50 12 13 19 30 16 38 -3 9
-1 12 4 9 6 -3 10 3 10 15 0 12 -4 19 -8 16 -5 -3 -1 32 9 77 24 109 24 131 2
123 -15 -5 -14 -3 2 9 11 9 20 24 20 33 0 9 4 22 8 29 4 6 3 14 -3 18 -6 4 -8
10 -6 14 6 10 15 54 23 115 l6 49 -28 -7 c-26 -7 -27 -6 -14 10 13 16 12 16
-7 6 -12 -6 -24 -9 -27 -6 -3 3 -14 1 -26 -5 -13 -8 -22 -8 -26 -1 -4 6 -11 7
-18 3 -17 -10 -56 -10 -50 1 3 5 0 7 -7 4 -8 -2 -16 -10 -18 -17 -3 -10 4 -12
26 -9 23 3 30 1 29 -11 -1 -12 -10 -16 -36 -14 -70 3 -68 2 -49 16 15 12 11
15 -32 32 -27 10 -47 22 -44 26 2 4 0 10 -6 14 -6 4 -8 10 -5 14 5 9 -50 5
-65 -4 -5 -3 -12 1 -17 8 -10 18 -73 50 -81 42 -4 -4 -7 -14 -7 -23 0 -11 -7
-16 -17 -14 -20 3 -24 -13 -7 -24 6 -3 15 -1 19 5 5 9 10 9 18 -1 7 -9 8 -19
2 -28 -6 -8 -10 -19 -10 -25 0 -5 4 -4 9 4 7 11 10 9 15 -7 4 -12 13 -19 20
-16 24 9 60 -77 53 -126 -7 -52 -51 -103 -80 -94 -11 4 -17 2 -14 -3 4 -6 -6
-19 -22 -31 l-28 -20 18 36 19 36 -48 14 c-26 8 -55 18 -64 23 -10 5 -25 9
-33 9 -8 0 -15 5 -15 11 0 6 -7 9 -15 5 -12 -4 -13 -2 -6 12 5 9 10 28 10 42
4 101 8 150 14 156 3 3 -1 13 -9 22 -13 12 -13 16 -2 23 9 6 7 9 -9 9 -13 0
-23 5 -23 11 0 5 4 8 9 5 5 -3 14 1 21 9 10 13 9 15 -10 15 -21 0 -20 2 9 29
17 16 31 35 31 43 -1 7 -6 3 -13 -10 l-13 -23 -14 26 c-10 19 -16 22 -23 13
-5 -8 -7 -2 -3 19 3 17 1 45 -4 62 -5 18 -5 31 0 31 5 0 18 9 29 21 13 14 26
19 40 14 31 -9 42 1 31 30 -11 28 2 41 20 20 7 -8 9 -15 4 -15 -5 0 14 -12 41
-26 59 -30 83 -34 273 -39 128 -3 161 2 132 20 -25 16 5 22 42 9 48 -17 72
-18 63 -3 -4 6 -13 8 -21 5 -8 -3 -14 -1 -14 4 0 6 -7 10 -15 10 -19 0 -39 36
-24 45 16 11 -31 31 -84 37 -26 3 -50 2 -53 -3 -3 -5 -13 -5 -24 1 -10 5 -29
10 -42 11 -13 0 -17 3 -10 6 6 2 9 10 5 16 -5 8 -2 8 9 0 8 -7 18 -10 22 -6 8
8 10 8 61 12 29 2 29 3 8 13 -13 6 -23 15 -23 20 0 10 42 -10 52 -26 5 -7 8
-4 8 7 0 10 5 15 10 12 6 -4 17 -2 25 5 9 8 15 8 20 0 3 -6 10 -8 15 -5 4 3
13 -2 19 -9 9 -11 9 -16 0 -22 -7 -4 -9 -3 -5 4 3 6 2 13 -4 17 -5 3 -10 1
-10 -6 0 -7 -5 -8 -13 -3 -7 5 -4 1 6 -8 19 -18 64 -19 60 -2 -1 5 9 15 23 22
30 16 31 40 2 51 -14 5 -17 10 -10 15 7 4 12 4 13 -1 1 -14 18 31 18 50 1 11
-3 15 -10 11 -7 -4 -10 -3 -7 2 21 45 33 64 42 64 8 0 8 2 0 8 -6 4 -7 17 -3
32 7 24 7 24 8 3 1 -13 6 -23 13 -23 6 0 8 3 5 6 -3 4 -1 16 6 28 6 11 12 56
13 99 2 65 -1 84 -20 118 -13 22 -27 41 -32 42 -5 1 -8 6 -6 11 1 4 -2 14 -8
20 -5 7 -9 15 -7 17 1 2 0 3 -2 2 -2 -2 -10 5 -18 15 -9 10 -11 11 -7 2 7 -12
5 -13 -8 -2 -16 13 -68 13 -68 0 0 -4 -3 -7 -7 -7 -28 5 -36 -2 -18 -15 18
-13 17 -13 -6 -12 -13 1 -36 -1 -52 -5 -15 -5 -25 -4 -22 1 3 5 -12 18 -35 29
-22 10 -40 15 -40 10 0 -5 -15 -9 -32 -10 -30 -1 -31 -2 -8 -8 30 -8 40 -41
13 -41 -39 0 -61 12 -58 30 3 13 -1 16 -16 13 -11 -3 -19 0 -19 7 0 7 -12 0
-26 -16 -20 -22 -25 -24 -20 -9 5 18 5 18 -7 3 -12 -15 -14 -15 -25 0 -7 9
-10 12 -7 6 2 -7 -2 -17 -9 -23 -12 -10 -14 -8 -10 11 5 23 5 23 -11 -2 -9
-14 -14 -17 -11 -7 3 11 0 20 -10 24 -19 7 -41 -12 -25 -21 6 -4 11 -14 11
-22 0 -9 -5 -12 -12 -8 -7 5 -8 3 -4 -5 11 -17 -13 -71 -31 -71 -10 0 -14 7
-11 18 3 11 0 19 -7 19 -7 0 -10 -9 -8 -21 4 -16 2 -18 -5 -7 -6 8 -19 12 -30
9 -24 -7 -60 26 -43 37 6 3 11 -1 11 -9 0 -18 16 -30 24 -17 4 5 0 16 -8 24
-8 8 -12 18 -8 22 4 4 -3 2 -15 -4 -13 -6 -23 -8 -23 -4 0 12 16 35 24 34 15
-2 16 0 6 19 -6 11 -15 18 -20 15 -5 -3 -14 5 -21 17 -14 27 -14 29 0 38 7 3
9 14 5 24 -5 14 -9 15 -15 4 -6 -9 -9 -10 -9 -1 0 7 -6 11 -12 9 -7 -1 -10 -1
-5 1 4 3 4 10 1 15 -4 7 -2 8 4 4 19 -11 28 45 10 58 -11 8 -13 18 -6 36 l9
25 -25 -27 c-15 -16 -23 -33 -20 -42 3 -9 1 -16 -4 -16 -11 0 -10 -13 6 -66
11 -36 4 -87 -10 -78 -6 4 -5 -3 2 -16 6 -12 9 -28 6 -36 -3 -8 -2 -13 3 -10
5 3 11 -1 15 -9 3 -9 0 -15 -9 -15 -8 0 -14 -3 -14 -7 5 -31 -2 -45 -21 -40
-13 3 -20 0 -20 -10 0 -12 -2 -12 -16 1 -8 9 -12 20 -9 26 4 6 3 10 -2 9 -4
-1 -10 -1 -13 1 -6 2 -47 10 -70 14 -8 1 -21 17 -29 34 -8 18 -22 32 -32 32
-9 0 -22 7 -29 15 -7 8 -15 13 -19 11 -3 -2 -16 0 -27 4 -17 7 -21 15 -18 39
2 16 0 33 -5 36 -5 3 -7 14 -4 25 4 13 0 20 -10 20 -8 0 -17 -9 -20 -20 -3
-11 0 -20 6 -20 9 0 9 -2 1 -8 -6 -4 -10 -15 -8 -24 1 -10 -2 -18 -8 -18 -6 0
-8 11 -6 25 3 14 1 25 -4 25 -5 0 -7 4 -4 9 9 13 -62 83 -76 75 -7 -4 -8 -3
-4 5 4 6 13 8 19 4 7 -4 7 0 -1 10 -12 14 -11 16 8 12 21 -4 21 -3 7 13 -8 9
-18 27 -21 39 -8 26 -36 39 -36 17 0 -8 5 -12 10 -9 6 3 10 -1 10 -10 0 -9
-13 -21 -30 -26 -17 -6 -27 -16 -23 -22 3 -6 1 -7 -5 -3 -7 4 -12 2 -12 -5 0
-7 -3 -9 -7 -5 -5 4 5 18 22 31 16 13 26 27 22 31 -3 4 -13 1 -22 -6 -14 -11
-15 -7 -13 33 2 25 6 43 10 41 12 -7 38 8 38 23 0 8 -4 11 -10 8 -5 -3 -10 -1
-10 5 0 6 -5 8 -12 4 -8 -5 -9 -2 -4 12 4 10 4 15 0 12 -3 -4 -21 3 -38 16
-17 13 -36 22 -42 19 -12 -4 -31 14 -36 37 -2 8 2 14 7 15 21 1 52 31 49 47
-1 10 3 21 8 25 7 4 8 1 3 -7 -6 -9 -4 -11 4 -5 9 5 5 15 -14 35 -17 18 -25
35 -21 45 3 9 2 14 -3 10 -5 -3 -12 1 -15 7 -3 7 -3 2 0 -12 4 -14 16 -36 28
-49 l21 -24 -23 14 c-12 8 -28 31 -34 52 -6 20 -15 37 -21 37 -5 0 1 9 14 21
13 11 19 18 14 15 -6 -2 -17 5 -24 17 -11 18 -11 20 0 10 7 -7 17 -13 23 -13
5 0 1 6 -10 14 -12 9 -23 11 -30 5 -12 -10 -24 -2 -24 15 0 6 4 5 9 -2 7 -11
9 -11 14 1 7 19 -21 16 -34 -4 -13 -20 -11 -5 3 26 6 14 14 21 17 16 3 -5 15
3 25 18 l20 26 -22 -19 c-19 -17 -33 -10 -15 8 4 3 8 14 9 22 1 9 -1 13 -4 9
-4 -4 -8 -11 -8 -16 -3 -22 -5 -23 -14 -9 -9 13 -10 13 -10 0 0 -13 -1 -13
-10 0 -8 13 -10 12 -10 -4 0 -12 5 -16 15 -12 8 3 15 1 15 -4 0 -6 -4 -10 -10
-10 -5 0 -9 -5 -7 -11 1 -6 -6 -13 -15 -14 -10 -2 -16 2 -15 8 1 7 -5 11 -13
9 -11 -2 -11 1 3 11 9 8 17 24 17 36 0 12 4 19 10 16 6 -4 7 1 3 11 -4 12 -2
15 8 12 8 -3 13 -12 11 -19 -2 -8 8 -3 22 10 14 13 22 29 19 35 -4 6 4 2 16
-8 22 -20 22 -20 16 0 -4 12 -1 10 9 -6 14 -23 15 -23 16 -5 1 15 3 17 8 5 9
-20 60 -19 73 0 7 11 8 7 5 -15 -4 -26 -3 -28 8 -13 11 15 16 15 37 4 26 -13
53 -11 44 4 -3 5 -1 11 5 15 5 3 10 -2 11 -12 0 -11 3 -13 6 -5 2 6 9 10 14 6
5 -3 9 0 9 6 0 6 5 8 10 5 6 -3 10 -2 10 3 0 6 -7 12 -15 16 -8 3 -15 11 -14
18 0 10 2 10 6 1 2 -7 11 -13 19 -13 9 0 13 4 10 8 -2 4 -1 14 3 21 6 10 10 9
14 -4 5 -10 3 -14 -5 -9 -7 4 -8 3 -4 -5 11 -17 29 -2 21 18 -5 12 -3 13 5 5
8 -9 9 -17 2 -31 -12 -21 -10 -48 3 -60 4 -4 5 -2 1 5 -10 17 9 15 24 -3 7 -8
16 -12 21 -9 11 7 11 -3 0 -24 -8 -14 -4 -17 24 -18 32 -1 32 -1 31 41 -1 35
-4 41 -18 37 -12 -3 -18 1 -18 12 0 9 5 16 11 16 5 0 7 -5 3 -12 -5 -7 -3 -8
6 -3 8 5 18 1 27 -10 7 -11 13 -15 13 -11 0 5 7 3 15 -4 11 -9 15 -9 15 -1 0
6 -15 20 -32 31 -18 11 -28 20 -22 20 5 0 19 -7 30 -15 24 -18 40 -19 25 -1
-8 9 -8 16 -2 20 21 14 -1 35 -35 34 -18 -1 -32 -4 -30 -7 2 -3 -2 -12 -10
-19 -9 -8 -14 -9 -14 -2 0 6 -5 8 -10 5 -6 -4 -9 -2 -8 3 2 6 -1 9 -5 9 -5 -1
-13 6 -18 16 -6 9 -19 17 -30 17 -11 0 -17 4 -14 10 4 6 -1 7 -10 3 -10 -3
-21 0 -26 8 -7 12 -9 11 -9 -2 0 -14 -24 -18 -59 -10 -3 1 4 7 14 15 18 13 18
14 -9 9 -26 -5 -29 -4 -23 16 4 17 2 21 -9 17 -8 -3 -14 -1 -14 5 0 6 -4 8 -9
5 -11 -7 -8 20 3 31 4 4 6 2 4 -6 -1 -7 5 -15 15 -16 14 -3 15 0 8 9 -6 7 -8
16 -4 19 8 8 -16 37 -31 37 -7 0 -6 -4 2 -9 11 -6 10 -11 -3 -25 -20 -20 -20
-20 -39 0 -22 21 -20 33 4 27 16 -4 20 0 20 18 0 20 2 21 11 9 8 -12 9 -10 4
8 -7 26 11 55 29 45 6 -3 7 -2 3 3 -5 5 -17 10 -28 10 -31 2 -32 3 -18 22 12
15 12 16 -2 5 -9 -7 -18 -10 -22 -7 -3 3 -4 -2 -3 -13 2 -10 8 -18 14 -18 6 0
13 -3 16 -7 3 -5 3 -6 -1 -3 -3 3 -11 1 -17 -4 -20 -15 -45 -20 -51 -10 -4 5
-3 9 2 8 4 -1 16 -1 26 0 15 1 15 4 5 21 -7 11 -15 15 -19 9 -4 -7 -9 -5 -12
5 -3 8 -2 18 4 22 7 4 6 10 0 18 -6 7 -8 16 -4 20 4 4 0 4 -10 0 -17 -6 -17
-7 0 -20 16 -13 15 -13 -9 -3 -23 10 -25 14 -13 23 11 8 12 15 4 26 -10 13
-10 13 -6 -1 3 -9 -1 -16 -8 -16 -8 0 -11 7 -7 15 4 11 1 13 -9 7 -8 -4 -11
-5 -7 0 4 4 3 16 -3 26 -7 15 -7 19 3 17 14 -3 21 48 9 67 -5 10 -7 19 -10 66
-1 12 -5 17 -13 13 -7 -4 -8 -3 -4 4 4 7 2 12 -4 12 -6 0 -8 5 -5 11 10 15 33
-20 38 -56 2 -16 10 -31 18 -34 8 -3 15 -14 15 -23 1 -10 -2 -16 -6 -13 -9 6
-7 -36 3 -52 5 -8 4 -13 -2 -13 -6 0 -11 5 -11 12 0 9 -3 9 -11 1 -13 -13 -2
-36 12 -27 6 3 17 -2 25 -12 14 -18 14 -18 4 4 -10 20 -7 26 12 23 5 0 7 2 7
7 -1 4 0 9 1 12 7 19 7 41 -1 46 -6 3 -5 12 3 22 7 9 8 13 2 9 -15 -9 -59 32
-66 61 -8 28 0 28 28 1 l23 -22 -5 29 c-6 33 -14 45 -14 21 0 -14 -4 -14 -35
4 -19 11 -39 18 -44 15 -5 -3 -7 3 -4 14 6 22 -14 53 -28 45 -4 -3 -6 6 -3 21
3 18 1 23 -7 18 -7 -4 -18 1 -26 11 -7 11 -13 14 -13 8 0 -6 7 -16 15 -23 11
-9 12 -15 2 -25 -8 -8 -16 -10 -24 -4 -7 7 -13 5 -17 -3 -3 -7 -3 6 -1 30 2
23 3 42 2 41 -1 0 -11 -4 -22 -8z m57 -93 c-5 -5 -19 -4 -33 1 -23 10 -22 10
8 8 18 0 29 -5 25 -9z m43 2 c3 -6 -1 -7 -9 -4 -18 7 -21 14 -7 14 6 0 13 -4
16 -10z m120 -159 c-3 -5 -1 -12 4 -15 10 -7 9 -25 -2 -44 -11 -17 -26 -6 -22
16 2 9 4 18 5 20 2 1 4 7 5 12 1 6 3 12 4 15 0 3 4 5 7 5 3 0 3 -4 -1 -9z
m-637 -171 c15 0 15 -2 2 -10 -13 -9 -13 -10 0 -11 8 -1 19 -1 23 0 4 1 7 -6
5 -15 -2 -12 6 -18 27 -21 39 -6 44 -12 22 -28 -17 -12 -10 -22 17 -23 5 0 13
-7 18 -16 5 -9 14 -13 20 -10 6 4 8 2 4 -4 -4 -7 -14 -6 -33 3 -18 9 -29 11
-33 4 -4 -5 -19 -12 -34 -15 -18 -3 -25 -1 -21 6 3 5 1 10 -4 10 -12 0 -14
-13 -4 -23 3 -4 7 -18 8 -31 0 -17 -3 -22 -11 -15 -6 5 -15 5 -19 1 -5 -4 -5
-1 -1 6 10 17 -18 26 -43 12 -15 -8 -21 -8 -21 0 0 6 -5 8 -12 4 -7 -4 -8 -3
-4 4 4 7 13 12 21 12 8 0 16 3 18 8 3 4 -21 6 -54 5 -54 -1 -76 8 -46 20 6 3
3 6 -8 6 -12 1 -26 6 -31 11 -7 7 -11 6 -11 -4 0 -8 5 -14 10 -13 5 1 11 -4
13 -11 1 -7 0 -8 -2 -3 -3 5 -17 7 -32 5 -20 -3 -23 -2 -12 5 8 6 16 15 16 21
1 5 2 15 3 21 0 5 6 7 11 4 6 -3 26 -1 44 6 29 11 33 15 25 31 -7 13 -6 18 3
16 6 -2 12 3 13 11 0 8 7 16 15 18 13 4 13 3 0 -6 -13 -9 -12 -11 5 -11 15 0
17 -3 7 -9 -10 -6 -8 -10 10 -14 41 -12 54 -8 32 8 -10 8 -14 15 -9 14 32 -4
38 2 19 17 -17 14 -17 15 -1 10 10 -3 26 -6 35 -6z m107 -40 c3 -5 1 -10 -4
-10 -6 0 -11 5 -11 10 0 6 2 10 4 10 3 0 8 -4 11 -10z m581 -66 c1 -9 0 -13
-4 -10 -3 4 -7 14 -8 22 -1 9 0 13 4 10 3 -4 7 -14 8 -22z m-136 -7 c13 -5 13
-6 -1 -6 -8 -1 -24 6 -35 15 -19 15 -19 15 1 6 11 -5 27 -12 35 -15z m-440
-56 c0 -12 -2 -13 -9 -3 -4 7 -12 12 -17 11 -17 -3 -25 1 -20 10 9 15 46 0 46
-18z m-304 8 c4 -7 1 -10 -7 -7 -8 3 -19 -2 -24 -9 -9 -12 -11 -10 -12 6 -2
23 30 30 43 10z m844 -9 c0 -13 -11 -13 -30 0 -12 8 -11 10 8 10 12 0 22 -4
22 -10z m-904 -26 c2 -12 -1 -13 -12 -3 -7 6 -11 16 -8 21 7 11 17 3 20 -18z
m124 16 c0 -5 -7 -10 -16 -10 -8 0 -12 5 -9 10 3 6 10 10 16 10 5 0 9 -4 9
-10z m190 -6 c0 -8 -19 -13 -24 -6 -3 5 1 9 9 9 8 0 15 -2 15 -3z m720 -93 c0
-5 -8 -11 -19 -14 -15 -3 -18 0 -14 17 4 17 3 18 -6 6 -6 -8 -11 -10 -11 -4 0
6 3 14 6 17 8 8 44 -10 44 -22z m-440 -26 c37 -19 39 -28 4 -15 -14 6 -30 7
-36 4 -6 -4 -8 -2 -4 4 3 5 0 13 -6 15 -10 4 -10 6 0 6 7 1 26 -6 42 -14z
m288 8 c-3 -15 14 -43 23 -37 5 3 8 0 7 -8 -2 -7 3 -12 10 -10 6 1 12 -2 12
-8 0 -18 -43 -4 -46 15 -1 10 -7 22 -13 28 -14 14 -14 27 -1 27 6 0 9 -3 8 -7z
m283 -47 c-10 -11 -9 -15 6 -18 10 -2 14 -6 8 -10 -6 -4 -17 -3 -24 1 -10 7
-10 12 0 29 7 12 15 19 18 17 2 -3 -2 -11 -8 -19z m-455 -8 c4 -6 3 -8 -4 -4
-6 3 -13 2 -17 -4 -4 -6 5 -10 20 -10 17 0 24 4 19 12 -4 7 -3 8 4 4 8 -5 9
-13 3 -24 -4 -9 -11 -24 -15 -32 -3 -8 -4 -5 -2 8 3 16 -1 22 -13 22 -25 0
-33 11 -20 27 14 16 16 16 25 1z m67 -8 c4 0 5 6 1 13 -6 10 -4 10 7 0 9 -9
10 -16 3 -23 -7 -7 -17 -3 -29 12 -11 13 -13 17 -5 11 8 -7 18 -13 23 -13z
m447 -57 c0 -7 -4 -13 -9 -13 -5 0 -8 8 -7 18 0 9 -5 16 -11 15 -14 -3 -17 9
-6 20 7 8 32 -23 33 -40z m-300 -458 c0 -7 -7 -21 -16 -29 -14 -15 -14 -16 0
-16 21 0 20 -14 -1 -31 -16 -13 -17 -12 -5 2 11 14 10 17 -5 15 -12 0 -18 6
-18 18 0 10 -9 23 -20 27 -19 7 -19 8 -1 8 15 1 16 4 6 16 -6 8 -9 18 -6 24 8
13 66 -17 66 -34z m-37 -144 c-2 -15 1 -20 9 -15 7 4 8 3 4 -4 -13 -22 -31
-12 -33 19 -2 20 2 29 10 26 7 -2 11 -14 10 -26z m107 -1 c-6 -11 -13 -20 -16
-20 -2 0 0 9 6 20 6 11 13 20 16 20 2 0 0 -9 -6 -20z m-27 -5 c-3 -9 -8 -14
-10 -11 -3 3 -2 9 2 15 9 16 15 13 8 -4z m1037 -211 c24 -14 24 -15 3 -11 -13
3 -23 1 -23 -4 0 -5 10 -9 23 -10 21 0 21 -1 2 -9 -23 -9 -38 2 -40 30 -2 24
2 24 35 4z m-521 -33 c-1 -13 -2 -13 -6 2 -2 9 -9 17 -14 17 -5 0 -9 5 -9 11
0 8 5 8 15 -1 8 -7 14 -20 14 -29z m381 24 c0 -2 -10 -10 -22 -16 -21 -11 -22
-11 -9 4 13 16 31 23 31 12z m-536 -101 c5 -14 4 -15 -9 -4 -17 14 -19 20 -6
20 5 0 12 -7 15 -16z m871 -164 c17 -7 14 -9 -13 -9 -20 -1 -31 3 -27 9 7 12
13 12 40 0z m20 -55 c1 -23 0 -23 -16 -7 -12 12 -13 21 -6 30 13 16 22 7 22
-23z m-666 -61 c4 3 7 -21 8 -52 3 -82 7 -106 18 -114 7 -5 7 -10 0 -15 -14
-11 -17 -33 -5 -33 6 0 13 7 16 15 4 8 10 15 15 15 13 0 6 -23 -11 -36 -12
-10 -12 -15 -2 -27 11 -13 10 -15 -7 -10 -12 3 -21 1 -21 -6 0 -6 -6 -11 -13
-11 -13 0 -40 52 -42 82 -1 10 -12 29 -24 42 -30 32 -38 101 -13 116 13 8 14
13 4 17 -9 4 -10 8 -2 18 8 10 20 11 42 4 17 -4 34 -7 37 -5z m383 -46 c-6 -6
-16 -7 -22 -3 -9 6 -9 9 1 16 17 10 34 0 21 -13z m97 -53 c-8 -7 -26 -15 -41
-19 -22 -5 -26 -3 -22 9 4 8 10 15 15 15 4 0 5 8 2 17 -5 12 -2 15 10 10 9 -3
19 -1 23 5 4 7 10 4 16 -7 7 -12 6 -21 -3 -30z m-451 0 c-3 -3 -9 2 -12 12 -6
14 -5 15 5 6 7 -7 10 -15 7 -18z m-921 -37 c-3 -8 -6 -5 -6 6 -1 11 2 17 5 13
3 -3 4 -12 1 -19z m129 -22 c2 -20 -4 -27 -28 -35 -17 -6 -32 -11 -34 -11 -2
0 -1 15 2 33 12 60 54 70 60 13z m-82 25 c3 -4 3 -11 0 -14 -8 -8 -34 3 -34
14 0 11 27 12 34 0z m905 -12 c-11 -6 -10 -9 4 -15 9 -3 17 -10 17 -15 0 -5
-9 -4 -19 3 -22 14 -25 49 -3 41 11 -5 11 -7 1 -14z m-871 -134 c12 16 32 16
26 0 -4 -8 -10 -13 -14 -10 -5 3 -14 0 -22 -7 -16 -16 -40 -17 -50 -3 -4 6 -8
-1 -9 -15 0 -23 -1 -23 -9 -5 -5 11 -9 14 -9 7 -1 -7 -6 -10 -11 -7 -16 10 8
45 30 45 11 0 20 5 20 12 0 6 9 3 21 -8 12 -10 23 -14 27 -9z m-117 -32 c-12
-20 -14 -14 -5 12 4 9 9 14 11 11 3 -2 0 -13 -6 -23z m934 -11 c-3 -3 -11 0
-18 7 -9 10 -8 11 6 5 10 -3 15 -9 12 -12z m-1073 -121 c10 6 19 6 22 0 7 -11
-3 -18 -24 -16 -8 1 -23 3 -32 3 -10 1 -18 7 -18 12 0 7 6 7 18 1 11 -6 24 -6
34 0z m190 -3 c12 -2 14 -6 6 -15 -7 -9 -6 -14 6 -19 10 -4 15 -13 12 -20 -3
-8 -1 -14 4 -14 6 0 10 8 10 18 1 12 6 8 17 -12 l15 -29 16 26 c9 15 20 27 24
27 23 0 58 -22 58 -36 0 -10 8 -26 18 -37 9 -11 11 -17 5 -13 -17 9 -17 -16
-1 -32 9 -9 8 -12 -5 -12 -10 0 -17 -8 -17 -20 0 -11 -6 -20 -12 -20 -10 0 -9
-3 1 -9 10 -7 8 -10 -10 -16 -13 -4 -35 -17 -49 -29 -13 -11 -19 -13 -12 -4
11 14 10 16 -7 11 -19 -5 -25 -15 -22 -35 0 -5 -8 -8 -18 -8 -12 0 -21 8 -24
23 -3 16 -5 14 -6 -10 -1 -29 -3 -31 -36 -29 -19 2 -36 -1 -38 -7 -6 -18 -29
4 -24 23 4 14 -1 17 -25 15 -19 -2 -32 3 -39 16 -5 10 -13 18 -17 16 -13 -4
-14 8 -3 51 8 28 16 40 24 36 9 -5 8 -3 0 7 -13 13 -19 38 -6 26 9 -9 46 53
48 81 2 21 -2 23 -32 26 -7 1 -13 5 -13 9 0 4 0 12 0 18 0 9 43 8 152 -3z
m-182 -278 c0 -5 -5 -10 -11 -10 -5 0 -7 5 -4 10 3 6 8 10 11 10 2 0 4 -4 4
-10z m1420 -174 c0 -3 -4 -8 -10 -11 -5 -3 -10 -1 -10 4 0 6 5 11 10 11 6 0
10 -2 10 -4z m1 -53 c-21 27 -5 32 21 7 13 -13 18 -20 11 -16 -20 11 -21 -8
-2 -26 11 -10 21 -13 24 -8 4 6 11 10 16 10 6 0 3 -7 -6 -16 -14 -15 -18 -14
-42 10 -14 14 -33 26 -41 26 -8 0 -12 3 -9 7 4 3 1 13 -5 22 -7 9 1 5 17 -9
16 -14 23 -17 16 -7z m299 -64 c0 -6 -5 -7 -11 -3 -7 4 -10 -3 -9 -17 4 -44 0
-59 -15 -59 -8 0 -15 5 -15 10 0 6 4 10 9 10 4 0 8 12 7 28 -1 28 13 53 27 45
4 -2 7 -9 7 -14z m-206 -4 c-4 -9 0 -15 9 -15 8 0 20 -6 26 -14 6 -7 22 -11
35 -9 13 3 32 0 43 -6 16 -11 15 -11 -7 -6 -22 6 -21 4 8 -16 18 -12 31 -23
29 -26 -9 -8 -77 26 -77 38 0 7 -3 9 -7 6 -3 -4 -15 1 -26 10 -16 14 -21 15
-25 5 -3 -9 -8 -6 -16 10 -9 16 -9 25 -2 30 15 11 16 10 10 -7z m-157 -10 c0
-8 -4 -12 -9 -9 -5 3 -6 10 -3 15 9 13 12 11 12 -6z m58 -25 c9 -16 13 -30 11
-30 -3 0 -12 14 -21 30 -9 17 -13 30 -11 30 3 0 12 -13 21 -30z m-275 -4 c0
-8 -7 -16 -15 -20 -17 -6 -18 -4 -9 18 8 20 24 21 24 2z m379 -342 c-7 -9 -4
-13 11 -16 22 -3 22 -3 2 -25 -19 -23 -49 -33 -37 -13 3 6 1 10 -4 10 -6 0
-11 10 -10 23 0 21 1 21 10 2 8 -18 9 -17 6 5 -3 19 1 26 14 26 13 0 15 -4 8
-12z m-314 -69 c0 -16 -5 -23 -12 -20 -7 2 -13 1 -13 -3 0 -21 -105 -58 -116
-41 -3 5 0 9 7 9 9 0 9 3 -1 14 -9 12 -4 18 29 34 22 11 51 17 64 15 14 -3 28
0 31 6 10 16 11 14 11 -14z m-155 -45 c0 -11 -2 -20 -4 -20 -2 0 -6 9 -9 20
-3 11 -1 20 4 20 5 0 9 -9 9 -20z m40 -130 c0 -5 -2 -10 -4 -10 -3 0 -8 5 -11
10 -3 6 -1 10 4 10 6 0 11 -4 11 -10z m60 -84 c0 -2 -7 -7 -16 -10 -8 -3 -12
-2 -9 4 6 10 25 14 25 6z m-57 -47 c-8 -8 -13 -7 -18 2 -5 8 -4 10 3 5 7 -4
12 -2 12 5 0 7 3 9 7 6 4 -4 2 -12 -4 -18z m-13 -113 c0 -3 -4 -8 -10 -11 -5
-3 -10 -1 -10 4 0 6 5 11 10 11 6 0 10 -2 10 -4z m204 -4 c3 -5 -1 -9 -9 -9
-8 0 -12 4 -9 9 3 4 7 8 9 8 2 0 6 -4 9 -8z m-2027 -44 c-1 -10 -2 -18 -4 -18
-1 0 -7 8 -12 18 -7 14 -6 19 4 19 7 0 13 -9 12 -19z m5 -21 c18 3 28 1 24 -5
-3 -6 0 -13 6 -15 8 -3 6 -6 -4 -6 -10 -1 -18 -4 -18 -7 0 -4 8 -13 18 -20 16
-12 15 -13 -8 -14 -18 0 -21 -3 -11 -9 11 -7 9 -10 -8 -16 -12 -3 -19 -10 -16
-15 3 -4 -2 -11 -11 -14 -8 -3 -13 -10 -10 -14 3 -5 -1 -9 -9 -9 -13 0 -13 3
0 17 10 11 14 28 11 44 -3 19 1 29 16 37 20 11 18 21 -7 25 -8 1 -12 -4 -8
-14 4 -15 3 -15 -7 -2 -10 13 -11 13 -6 -2 8 -26 -9 -22 -23 5 -11 22 -11 22
-6 -3 5 -25 5 -25 -7 -2 -13 26 -5 40 15 24 17 -14 27 -6 28 22 1 16 2 17 6 4
3 -12 12 -15 35 -11z m1685 -469 c-3 -7 -5 -2 -5 12 0 14 2 19 5 13 2 -7 2
-19 0 -25z m-37 -102 c0 -3 -4 -8 -10 -11 -5 -3 -10 -1 -10 4 0 6 5 11 10 11
6 0 10 -2 10 -4z m275 -52 c16 -25 16 -26 -7 -22 -15 2 -24 11 -26 26 -4 30
12 28 33 -4z m-247 -51 c12 -13 19 -29 16 -35 -4 -6 -2 -8 4 -4 11 6 52 -43
52 -63 0 -6 4 -11 9 -11 7 0 49 -79 82 -155 13 -30 36 -133 44 -190 5 -45 9
-193 5 -205 -1 -3 -3 -18 -5 -35 -9 -67 -16 -95 -27 -95 -6 0 -9 -3 -5 -6 10
-10 -30 -100 -57 -129 -14 -15 -27 -32 -27 -36 -1 -5 -3 -13 -4 -19 -1 -5 -3
-13 -4 -17 -1 -5 -8 6 -16 22 -12 27 -13 28 -14 8 -1 -14 -7 -23 -17 -23 -9 0
-12 5 -8 13 6 10 4 10 -7 0 -18 -18 -29 -16 -29 5 0 14 2 15 10 2 7 -12 9 -11
8 6 -1 11 -8 21 -15 21 -6 0 -10 -4 -7 -9 3 -4 0 -8 -7 -8 -7 0 -9 8 -6 21 5
17 3 18 -11 7 -9 -8 -13 -8 -9 -1 4 6 1 14 -5 16 -11 5 13 11 32 9 3 0 7 9 7
21 2 16 0 18 -7 8 -18 -30 -36 -20 -35 18 1 28 5 35 18 33 14 -2 15 1 7 22 -6
17 -6 27 1 32 7 4 7 10 0 18 -6 7 -7 17 -3 21 4 5 -6 1 -23 -9 -16 -10 -25
-13 -18 -6 14 15 6 43 -10 33 -6 -3 -7 -1 -3 6 4 6 2 19 -6 28 -9 12 -9 15 0
9 16 -10 15 4 -3 28 -12 16 -12 22 -2 35 6 8 7 12 2 9 -6 -4 -16 2 -23 12 -8
13 -8 21 -1 25 5 4 6 12 2 18 -5 7 -8 72 -8 144 0 73 -4 133 -8 133 -5 0 -5 5
-2 10 4 6 9 8 13 6 4 -2 6 17 5 42 -3 52 23 188 38 197 5 4 9 17 9 31 0 22 3
24 23 19 12 -4 32 -18 45 -32z m-111 -665 c-3 -8 -6 -5 -6 6 -1 11 2 17 5 13
3 -3 4 -12 1 -19z m77 -96 c3 -5 -1 -9 -9 -9 -8 0 -12 4 -9 9 3 4 7 8 9 8 2 0
6 -4 9 -8z"/>
<path d="M2999 7238 c-5 -18 -6 -38 -1 -34 7 8 12 36 6 36 -2 0 -4 -1 -5 -2z"/>
<path d="M3585 5400 c3 -5 8 -10 11 -10 2 0 4 5 4 10 0 6 -5 10 -11 10 -5 0
-7 -4 -4 -10z"/>
<path d="M3655 5247 c-4 -10 -5 -21 -1 -24 10 -10 18 4 13 24 -4 17 -4 17 -12
0z"/>
<path d="M2765 5000 c3 -5 1 -10 -4 -10 -6 0 -11 -8 -12 -17 0 -16 -2 -15 -10
2 -8 18 -9 18 -6 1 2 -19 47 -44 47 -26 0 6 -4 10 -10 10 -5 0 -10 4 -10 9 0
5 10 7 23 3 22 -5 22 -5 3 16 -20 23 -32 29 -21 12z"/>
<path d="M2702 4973 c-12 -21 1 -44 15 -29 4 3 0 6 -8 6 -12 0 -12 2 0 9 7 5
11 15 9 22 -3 10 -8 7 -16 -8z"/>
<path d="M2741 4748 c-1 -16 4 -28 9 -28 12 0 12 8 0 35 -8 18 -9 17 -9 -7z"/>
<path d="M3510 2822 c0 -12 4 -22 9 -22 10 0 9 26 -2 36 -4 4 -7 -2 -7 -14z"/>
<path d="M3456 2197 c3 -10 9 -15 12 -12 3 3 0 11 -7 18 -10 9 -11 8 -5 -6z"/>
<path d="M3476 2152 c-2 -4 1 -18 8 -31 11 -20 14 -21 19 -7 4 10 3 15 -3 11
-9 -6 -14 8 -11 28 1 9 -6 9 -13 -1z"/>
<path d="M3504 1975 c2 -34 13 -40 18 -11 3 14 0 27 -7 30 -7 2 -11 -5 -11
-19z"/>
<path d="M2885 7469 c-3 -3 2 -12 10 -19 8 -7 15 -11 16 -9 6 30 5 36 -8 36
-7 0 -16 -4 -18 -8z"/>
<path d="M2936 7407 c3 -10 9 -15 12 -12 3 3 0 11 -7 18 -10 9 -11 8 -5 -6z"/>
<path d="M3050 7335 c-7 -8 -17 -12 -23 -8 -6 3 -7 1 -3 -6 4 -6 12 -9 17 -6
5 4 9 2 9 -4 0 -5 -6 -12 -12 -14 -10 -4 -10 -6 0 -6 7 -1 10 -5 7 -11 -3 -5
-1 -10 5 -10 6 0 9 -4 5 -9 -3 -5 -1 -12 4 -16 6 -3 8 5 5 19 -4 24 -2 24 35
17 2 -1 -2 -7 -8 -15 -9 -10 -8 -16 4 -26 8 -7 13 -16 10 -20 -3 -5 -2 -11 3
-14 4 -2 8 6 8 19 0 13 -2 23 -5 23 -18 -1 -22 3 -13 15 7 8 5 19 -9 36 -11
14 -19 18 -19 10 0 -11 -2 -11 -10 1 -5 9 -5 19 2 27 6 7 8 13 5 13 -2 0 -10
-7 -17 -15z"/>
<path d="M3104 7303 c16 -20 36 -23 36 -6 0 4 -3 3 -7 0 -3 -4 -16 1 -27 10
-21 18 -21 18 -2 -4z"/>
<path d="M3173 7233 c4 -6 0 -16 -7 -22 -11 -10 -17 -8 -25 6 -6 10 -11 13
-11 7 0 -6 7 -17 15 -24 8 -7 15 -9 15 -5 0 4 7 2 15 -5 12 -10 13 -16 3 -29
-12 -14 -11 -14 4 -2 10 7 16 17 13 21 -7 12 26 51 38 44 7 -4 8 -3 4 1 -9 11
-37 16 -35 7 3 -15 -15 -42 -24 -36 -5 3 -5 11 2 19 8 10 8 15 -1 21 -7 4 -9
3 -6 -3z"/>
<path d="M3246 7213 c-6 -14 -5 -15 5 -6 7 7 10 15 7 18 -3 3 -9 -2 -12 -12z"/>
<path d="M3705 7061 c-3 -5 -2 -12 3 -15 5 -3 9 1 9 9 0 17 -3 19 -12 6z"/>
<path d="M3796 7045 c4 -8 11 -15 16 -15 6 0 5 6 -2 15 -7 8 -14 15 -16 15 -2
0 -1 -7 2 -15z"/>
<path d="M3653 7023 c0 -9 4 -10 14 -2 7 6 13 12 13 14 0 1 -6 2 -13 2 -8 0
-14 -6 -14 -14z"/>
<path d="M3758 7033 c6 -2 18 -2 25 0 6 3 1 5 -13 5 -14 0 -19 -2 -12 -5z"/>
<path d="M3120 6976 c0 -2 7 -9 15 -16 13 -11 14 -10 9 4 -5 14 -24 23 -24 12z"/>
<path d="M3056 6938 c3 -5 10 -6 15 -3 13 9 11 12 -6 12 -8 0 -12 -4 -9 -9z"/>
<path d="M3890 6931 c14 -5 24 -14 22 -22 -3 -11 -1 -11 8 -2 18 17 3 33 -28
32 l-27 -1 25 -7z"/>
<path d="M3196 6918 c3 -5 10 -6 15 -3 13 9 11 12 -6 12 -8 0 -12 -4 -9 -9z"/>
<path d="M3786 6883 c2 -7 -2 -13 -9 -13 -7 0 3 -9 21 -20 37 -23 55 -27 27
-6 -17 12 -17 14 -2 22 15 9 14 11 -4 22 -12 8 -18 9 -14 3 3 -6 2 -11 -4 -11
-5 0 -11 3 -14 8 -2 4 -2 1 -1 -5z"/>
<path d="M3386 6871 c9 -9 34 -9 34 -1 0 5 -9 8 -20 7 -10 -1 -17 -3 -14 -6z"/>
<path d="M3954 6832 c3 -5 0 -13 -6 -15 -9 -4 -10 -6 -1 -6 17 -1 25 16 12 25
-7 4 -9 3 -5 -4z"/>
<path d="M3788 6793 c7 -3 16 -2 19 1 4 3 -2 6 -13 5 -11 0 -14 -3 -6 -6z"/>
<path d="M3430 6765 c-8 -9 -8 -15 -2 -15 12 0 26 19 19 26 -2 2 -10 -2 -17
-11z"/>
<path d="M3476 6753 c-6 -14 -5 -15 5 -6 7 7 10 15 7 18 -3 3 -9 -2 -12 -12z"/>
<path d="M2850 6641 c0 -6 4 -13 10 -16 6 -3 7 1 4 9 -7 18 -14 21 -14 7z"/>
<path d="M2995 6501 c-3 -5 -2 -12 3 -15 5 -3 9 1 9 9 0 17 -3 19 -12 6z"/>
<path d="M3281 6444 c9 -11 -6 -13 -74 -11 -50 1 -84 -2 -84 -8 0 -5 21 -9 46
-9 25 1 57 -2 72 -6 16 -5 31 -4 37 2 6 6 12 6 17 -3 6 -8 4 -10 -5 -4 -9 5
-11 4 -6 -4 4 -6 11 -9 16 -6 5 3 24 -1 41 -10 23 -13 34 -14 43 -5 7 7 7 13
1 18 -6 4 -21 20 -33 36 -21 27 -22 27 -22 7 0 -12 4 -19 10 -16 6 3 10 -1 10
-9 0 -9 -3 -16 -8 -16 -9 0 -47 43 -45 51 1 3 -5 6 -12 6 -11 0 -12 -4 -4 -13z"/>
<path d="M3467 6436 c-17 -44 -6 -72 26 -67 4 0 7 -6 7 -15 0 -9 -5 -12 -12
-8 -7 4 -8 3 -4 -5 4 -6 11 -9 16 -6 4 3 10 1 12 -4 1 -5 9 -3 16 5 11 12 10
14 -3 14 -8 0 -15 8 -14 18 0 10 3 12 6 5 6 -15 33 -17 33 -3 0 13 -36 31 -46
22 -5 -4 -2 1 5 11 8 9 11 20 7 24 -3 3 -6 1 -6 -6 0 -7 -5 -9 -10 -6 -6 4 -7
11 -4 17 4 6 2 8 -4 4 -5 -3 -12 -1 -14 6 -3 7 -7 5 -11 -6z m17 -22 c3 -8 2
-12 -4 -9 -6 3 -10 10 -10 16 0 14 7 11 14 -7z"/>
<path d="M4234 6354 c0 -13 2 -21 5 -19 2 3 11 -5 20 -17 17 -24 23 -78 8 -78
-5 0 -6 -7 -3 -16 5 -13 4 -14 -7 -6 -10 9 -14 9 -14 -1 0 -7 14 -14 31 -15
22 -1 27 1 17 7 -9 6 -11 15 -6 27 10 24 6 55 -8 73 -7 8 -11 24 -10 35 1 12
0 15 -3 8 -3 -6 -10 -9 -15 -6 -6 4 -6 10 0 18 8 9 7 13 -2 13 -7 0 -13 -11
-13 -23z"/>
<path d="M3675 6360 c-3 -5 1 -10 10 -10 9 0 13 5 10 10 -3 6 -8 10 -10 10 -2
0 -7 -4 -10 -10z"/>
<path d="M3805 6361 c-3 -5 0 -13 6 -17 7 -4 9 -3 5 4 -3 5 0 13 6 15 9 4 10
6 1 6 -6 1 -14 -3 -18 -8z"/>
<path d="M3730 6350 c-9 -6 -10 -10 -3 -10 6 0 15 5 18 10 8 12 4 12 -15 0z"/>
<path d="M2970 6330 c-6 -11 -8 -20 -6 -20 3 0 10 9 16 20 6 11 8 20 6 20 -3
0 -10 -9 -16 -20z"/>
<path d="M3897 6301 c-11 -14 -10 -14 6 -2 13 10 17 10 17 1 0 -7 7 -10 14 -7
10 4 13 1 9 -9 -3 -10 2 -14 18 -14 l22 0 -21 23 c-26 28 -47 30 -65 8z"/>
<path d="M4245 6270 c-4 -6 -12 -7 -18 -3 -7 4 -6 0 2 -10 17 -21 27 -22 34
-2 7 17 -9 30 -18 15z"/>
<path d="M3676 6254 c-8 -20 -4 -25 11 -16 7 4 9 13 4 21 -6 10 -10 9 -15 -5z"/>
<path d="M3538 6243 c7 -3 16 -2 19 1 4 3 -2 6 -13 5 -11 0 -14 -3 -6 -6z"/>
<path d="M4185 6231 c-3 -5 -2 -12 3 -15 5 -3 9 1 9 9 0 17 -3 19 -12 6z"/>
<path d="M3225 6211 c-7 -12 12 -24 24 -16 5 3 12 -3 14 -12 4 -16 5 -17 6 -1
1 20 -35 43 -44 29z"/>
<path d="M3765 6210 c3 -5 8 -10 11 -10 2 0 4 5 4 10 0 6 -5 10 -11 10 -5 0
-7 -4 -4 -10z"/>
<path d="M3287 6204 c-6 -10 9 -42 16 -34 3 3 1 14 -3 24 -3 11 -9 15 -13 10z"/>
<path d="M4219 6181 c11 -7 11 -10 -3 -14 -15 -5 -15 -5 0 -3 24 2 30 26 7 26
-14 0 -15 -2 -4 -9z"/>
<path d="M4256 6175 c-4 -11 1 -15 17 -15 16 0 18 3 8 9 -11 7 -11 9 0 14 10
4 10 6 -2 6 -9 1 -19 -6 -23 -14z"/>
<path d="M3555 6160 c-3 -5 -3 -15 0 -20 4 -6 3 -9 -2 -8 -4 2 -9 0 -10 -4 -7
-19 -2 -20 17 -3 19 17 19 17 15 -3 -3 -20 15 -25 32 -8 4 4 4 7 -2 6 -25 -5
-28 1 -7 16 12 8 26 13 31 10 5 -3 11 1 14 9 5 11 1 12 -17 5 -13 -5 -29 -4
-37 1 -18 11 -26 11 -34 -1z"/>
<path d="M4007 6149 c3 -10 12 -19 19 -19 8 0 17 -7 20 -15 4 -8 10 -15 16
-15 5 0 7 4 3 9 -3 5 0 13 6 16 10 7 -11 22 -52 37 -13 5 -16 2 -12 -13z"/>
<path d="M3185 6140 c10 -11 20 -20 23 -20 3 0 -3 9 -13 20 -10 11 -20 20 -23
20 -3 0 3 -9 13 -20z"/>
<path d="M3245 6143 c2 -10 4 -22 4 -28 1 -5 5 -4 10 4 10 15 4 41 -9 41 -5 0
-7 -8 -5 -17z"/>
<path d="M3505 6149 c-4 -6 -5 -12 -2 -15 7 -7 37 7 37 17 0 13 -27 11 -35 -2z"/>
<path d="M3815 6140 c-11 -4 -43 -5 -71 -3 -28 3 -54 1 -57 -4 -3 -5 4 -9 16
-9 15 1 22 -5 22 -18 0 -11 8 -20 18 -22 15 -2 22 8 18 29 -1 5 2 6 7 3 4 -2
14 -1 22 4 9 5 20 4 28 -2 9 -8 16 -8 20 -1 4 5 14 12 22 15 11 3 9 6 -5 10
-11 3 -29 2 -40 -2z"/>
<path d="M3165 6080 c4 -6 10 -8 15 -5 10 6 18 -23 12 -48 -4 -15 -7 -16 -13
-5 -7 10 -9 9 -9 -4 0 -10 7 -18 15 -18 8 0 15 9 15 21 0 13 4 18 13 13 10 -6
10 -4 0 7 -7 7 -13 21 -13 31 0 12 -7 18 -21 18 -11 0 -17 -5 -14 -10z"/>
<path d="M4243 6083 c9 -2 17 -9 17 -14 0 -5 7 -9 15 -9 23 0 18 17 -7 24 -13
3 -27 5 -33 5 -5 -1 -2 -3 8 -6z"/>
<path d="M3734 6056 c1 -6 6 -17 10 -25 7 -10 6 -12 -4 -6 -8 5 -11 3 -8 -6 6
-18 55 -19 70 -2 7 9 6 14 -6 19 -9 3 -13 10 -10 15 3 5 -1 9 -8 10 -7 0 -20
2 -29 4 -10 1 -16 -2 -15 -9z m30 -4 c3 -5 -1 -9 -9 -9 -8 0 -12 4 -9 9 3 4 7
8 9 8 2 0 6 -4 9 -8z"/>
<path d="M3301 5907 c-8 -10 -7 -14 2 -14 8 0 14 6 14 14 0 7 -1 13 -2 13 -2
0 -8 -6 -14 -13z"/>
<path d="M3756 5867 c3 -10 9 -15 12 -12 3 3 0 11 -7 18 -10 9 -11 8 -5 -6z"/>
<path d="M3520 5820 c0 -5 5 -10 10 -10 6 0 10 5 10 10 0 6 -4 10 -10 10 -5 0
-10 -4 -10 -10z"/>
<path d="M3750 5799 c0 -5 5 -7 10 -4 6 3 10 8 10 11 0 2 -4 4 -10 4 -5 0 -10
-5 -10 -11z"/>
<path d="M4268 5243 c7 -3 16 -2 19 1 4 3 -2 6 -13 5 -11 0 -14 -3 -6 -6z"/>
<path d="M3770 5131 c0 -25 6 -27 13 -6 4 8 2 17 -3 20 -6 4 -10 -3 -10 -14z"/>
<path d="M3740 5130 c0 -5 5 -10 10 -10 6 0 10 5 10 10 0 6 -4 10 -10 10 -5 0
-10 -4 -10 -10z"/>
<path d="M3786 5103 c-6 -14 -5 -15 5 -6 7 7 10 15 7 18 -3 3 -9 -2 -12 -12z"/>
<path d="M3681 5084 c0 -11 3 -14 6 -6 3 7 2 16 -1 19 -3 4 -6 -2 -5 -13z"/>
<path d="M3711 5061 c-10 -6 -10 -10 -1 -16 13 -8 24 -1 19 14 -3 6 -10 7 -18
2z"/>
<path d="M4130 5056 c0 -2 7 -6 15 -10 8 -3 15 -1 15 4 0 6 -7 10 -15 10 -8 0
-15 -2 -15 -4z"/>
<path d="M3798 4942 c-6 -24 13 -64 28 -58 6 2 17 0 23 -5 8 -6 8 -5 1 3 -5 7
-10 18 -10 25 0 7 -9 22 -19 32 -18 18 -20 18 -23 3z"/>
<path d="M4070 3960 c0 -5 5 -10 10 -10 6 0 10 5 10 10 0 6 -4 10 -10 10 -5 0
-10 -4 -10 -10z"/>
<path d="M1531 3638 c-10 -30 -9 -31 4 -14 8 11 15 26 15 33 0 22 -8 14 -19
-19z"/>
<path d="M3668 3632 c4 -11 1 -13 -8 -7 -9 6 -11 4 -5 -5 6 -10 11 -10 20 3
16 22 24 21 18 -2 -3 -10 0 -21 5 -25 14 -8 22 32 8 42 -18 15 -45 11 -38 -6z"/>
<path d="M3900 3631 c0 -6 4 -13 10 -16 6 -3 7 1 4 9 -7 18 -14 21 -14 7z"/>
<path d="M3745 3600 c10 -11 20 -20 23 -20 3 0 -3 9 -13 20 -10 11 -20 20 -23
20 -3 0 3 -9 13 -20z"/>
<path d="M1516 3571 c-4 -5 -2 -12 3 -15 5 -3 7 -15 4 -25 -3 -10 -1 -21 5
-24 5 -4 9 9 10 28 1 34 -11 54 -22 36z"/>
<path d="M1500 3539 c0 -5 5 -7 10 -4 6 3 10 8 10 11 0 2 -4 4 -10 4 -5 0 -10
-5 -10 -11z"/>
<path d="M1530 3478 c0 -9 5 -20 10 -23 13 -8 13 5 0 25 -8 13 -10 13 -10 -2z"/>
<path d="M1405 3350 c-3 -5 -1 -10 4 -10 6 0 11 5 11 10 0 6 -2 10 -4 10 -3 0
-8 -4 -11 -10z"/>
<path d="M1856 3328 c-9 -12 -16 -17 -16 -11 0 15 -27 11 -43 -7 -8 -9 -8 -11
0 -6 6 3 14 2 18 -4 4 -7 12 -7 26 0 18 10 24 6 19 -15 -1 -5 2 -6 6 -2 8 8
16 67 9 67 -2 0 -11 -10 -19 -22z"/>
<path d="M1400 3315 c0 -17 55 -48 73 -42 7 3 0 8 -15 12 -15 4 -30 16 -33 26
-7 22 -25 25 -25 4z"/>
<path d="M1925 3322 c-6 -6 4 -22 15 -22 4 0 10 6 13 13 5 13 -17 20 -28 9z"/>
<path d="M1885 3281 c-3 -5 -2 -12 3 -15 5 -3 9 1 9 9 0 17 -3 19 -12 6z"/>
<path d="M3726 3223 c-6 -14 -5 -15 5 -6 7 7 10 15 7 18 -3 3 -9 -2 -12 -12z"/>
<path d="M3757 3179 c7 -7 15 -10 18 -7 3 3 -2 9 -12 12 -14 6 -15 5 -6 -5z"/>
<path d="M1425 3140 c11 -36 33 -78 46 -85 6 -4 -2 17 -17 46 -31 63 -40 74
-29 39z"/>
<path d="M3792 3140 c7 -11 18 -20 25 -20 9 0 7 6 -4 20 -10 11 -21 20 -25 20
-5 0 -3 -9 4 -20z"/>
<path d="M2103 3100 c-3 -11 -11 -20 -19 -20 -20 0 -25 -16 -14 -44 12 -34 32
-34 24 -1 -5 22 -3 25 19 25 20 0 24 4 20 20 -4 16 0 20 21 20 16 0 25 4 21
10 -3 6 -20 10 -37 10 -21 0 -31 -6 -35 -20z"/>
<path d="M3840 3101 c0 -6 29 -36 65 -68 36 -32 91 -89 122 -127 45 -55 57
-76 56 -102 -1 -35 2 -38 67 -48 21 -4 28 -3 17 2 -10 4 -19 12 -20 17 0 6
-11 21 -24 35 -13 14 -47 54 -75 90 -66 81 -188 210 -200 210 -4 0 -8 -4 -8
-9z"/>
<path d="M2280 2940 c0 -6 -10 -8 -24 -4 -21 5 -24 2 -22 -20 1 -27 21 -42 31
-26 4 6 1 10 -4 10 -6 0 -11 5 -11 11 0 6 10 10 23 9 44 -4 50 -1 33 15 -17
17 -26 19 -26 5z"/>
<path d="M2064 2917 c-3 -9 -15 -19 -25 -22 -11 -4 -19 -14 -17 -23 1 -9 -1
-23 -5 -29 -5 -7 -5 -17 -2 -23 7 -12 36 -14 33 -2 -3 15 22 61 39 71 17 9 17
11 1 27 -16 16 -18 16 -24 1z"/>
<path d="M1580 2868 c0 -4 15 -34 32 -68 28 -52 30 -62 18 -70 -13 -8 -13 -10
1 -10 10 0 29 -36 59 -112 24 -62 60 -147 80 -188 21 -41 50 -104 65 -140 56
-134 82 -190 169 -360 174 -341 225 -445 226 -456 0 -6 -16 -18 -36 -28 -20
-9 -34 -19 -31 -22 2 -3 21 4 42 16 21 12 38 20 40 18 1 -2 7 -13 14 -25 11
-21 9 -22 -36 -26 l-48 -3 52 -2 c36 -1 56 -7 65 -19 7 -10 20 -19 28 -21 8
-2 17 -8 18 -13 4 -10 86 -69 97 -69 3 0 4 10 1 23 -3 12 -3 16 0 10 8 -19 27
-16 20 3 -3 8 -2 12 4 9 6 -3 10 1 10 11 0 11 -6 15 -20 11 -17 -4 -20 0 -20
24 0 20 5 29 16 29 9 0 14 6 12 13 -3 7 -24 12 -53 13 -32 0 -51 6 -60 17 -6
9 -14 15 -17 12 -2 -3 -5 2 -5 11 0 9 10 20 22 26 33 15 67 94 70 161 3 44 0
57 -11 57 -8 0 -17 6 -20 14 -10 26 -140 13 -182 -18 -7 -5 -11 -18 -10 -29 5
-35 -17 -29 -36 10 -10 21 -22 45 -27 53 -9 14 -26 51 -70 150 -12 25 -33 72
-49 105 -61 130 -89 191 -94 205 -3 8 -10 22 -15 30 -20 34 -101 206 -101 214
0 5 -6 17 -13 25 -7 9 -22 36 -32 61 -68 165 -175 378 -175 348z m710 -1203
c0 -29 -35 -53 -44 -30 -5 15 20 52 37 54 4 1 7 -10 7 -24z m46 2 c13 5 16 -2
13 -24 -1 -5 -6 -7 -11 -5 -12 3 -37 -28 -38 -47 0 -8 3 -11 8 -7 4 4 7 12 7
18 0 6 12 12 28 14 15 1 25 -2 22 -7 -4 -5 -13 -9 -22 -9 -11 0 -14 -6 -9 -25
5 -20 3 -25 -14 -25 -11 0 -20 7 -20 15 0 8 -4 15 -9 15 -10 0 -3 39 11 56 4
6 5 20 2 30 -6 15 -4 17 6 7 7 -6 19 -9 26 -6z m84 -287 c0 -5 -4 -10 -10 -10
-5 0 -10 5 -10 10 0 6 5 10 10 10 6 0 10 -4 10 -10z"/>
<path d="M2183 2838 c2 -7 13 -11 23 -9 10 2 56 5 101 5 44 1 79 4 76 9 -2 4
-49 7 -104 7 -76 0 -100 -3 -96 -12z"/>
<path d="M2074 2796 c-18 -14 -18 -15 -1 -21 23 -9 47 1 47 20 0 19 -20 19
-46 1z"/>
<path d="M1588 2773 c7 -3 16 -2 19 1 4 3 -2 6 -13 5 -11 0 -14 -3 -6 -6z"/>
<path d="M2388 2773 c7 -3 16 -2 19 1 4 3 -2 6 -13 5 -11 0 -14 -3 -6 -6z"/>
<path d="M3965 2440 c-4 -6 -12 -7 -18 -4 -7 4 -8 3 -4 -1 13 -15 34 -14 34 1
0 17 -4 18 -12 4z"/>
<path d="M4034 2419 c-3 -6 -1 -16 5 -22 8 -8 11 -5 11 11 0 24 -5 28 -16 11z"/>
<path d="M321 2384 c0 -11 3 -14 6 -6 3 7 2 16 -1 19 -3 4 -6 -2 -5 -13z"/>
<path d="M4502 2363 c9 -10 20 -31 26 -48 l10 -30 1 36 c1 37 -13 59 -38 59
-12 0 -12 -3 1 -17z"/>
<path d="M291 2303 c-32 -70 -105 -166 -137 -179 -18 -8 -35 -18 -38 -23 -11
-18 41 -5 69 17 15 12 35 23 44 24 31 2 36 4 60 17 13 7 42 19 65 26 l41 14
-40 -6 -40 -6 25 29 25 29 -25 -20 c-13 -11 -29 -25 -35 -32 -15 -19 -85 -45
-85 -32 0 6 13 29 29 52 35 52 64 107 58 113 -2 2 -9 -8 -16 -23z"/>
<path d="M4033 2301 c0 -22 3 -28 10 -19 6 9 7 6 4 -9 -3 -13 4 -34 19 -54 13
-18 29 -48 35 -68 7 -20 15 -38 18 -41 4 -3 30 -48 59 -100 29 -52 57 -102 62
-110 9 -14 32 -62 66 -135 8 -16 59 -117 114 -223 114 -220 120 -247 73 -315
l-27 -39 18 -126 c21 -155 48 -290 88 -442 71 -273 80 -321 83 -455 1 -72 3
-138 4 -147 1 -15 12 -18 76 -18 89 0 85 -12 49 155 -49 234 -113 596 -107
607 4 9 33 -1 31 -10 -1 -4 4 -20 10 -35 7 -16 12 -32 12 -37 0 -5 6 -11 13
-13 9 -4 8 -8 -3 -16 -11 -8 -11 -11 -2 -11 17 0 27 29 14 42 -8 8 -8 17 -1
30 21 40 1 77 -82 151 -18 16 -28 38 -34 73 -4 27 -10 54 -15 59 -16 21 -39
120 -30 129 6 6 10 15 10 21 0 5 -4 5 -8 -2 -5 -8 -12 1 -18 26 -9 35 -9 39 6
36 9 -2 17 3 17 10 0 8 -5 11 -10 8 -6 -4 -3 4 6 17 10 14 13 28 8 34 -8 10
-18 76 -25 181 -3 36 -26 96 -57 150 -23 38 -29 50 -35 65 -40 96 -95 194
-147 262 -93 123 -137 187 -137 198 0 6 -4 10 -9 10 -5 0 -14 14 -21 30 -7 17
-16 30 -21 30 -5 0 -17 13 -27 28 -9 16 -24 28 -34 26 -11 -1 -15 4 -13 17 2
11 0 17 -6 14 -5 -4 -9 -2 -9 2 0 5 -6 17 -13 27 -12 17 -14 16 -14 -13z"/>
<path d="M50 2183 c-44 -101 -56 -143 -41 -152 9 -6 10 -11 2 -15 -6 -4 -11
-12 -11 -18 0 -6 9 -3 20 7 24 21 26 35 6 35 -13 0 -13 5 1 38 19 45 53 152
48 152 -2 0 -13 -21 -25 -47z"/>
<path d="M4496 2139 c-7 -36 1 -59 20 -52 18 7 19 69 0 76 -9 4 -16 -4 -20
-24z"/>
<path d="M546 2147 c3 -10 9 -15 12 -12 3 3 0 11 -7 18 -10 9 -11 8 -5 -6z"/>
<path d="M670 2152 c0 -13 33 -56 57 -75 13 -10 23 -27 23 -39 0 -30 25 -16
26 15 1 14 -3 24 -8 21 -5 -4 -29 15 -54 40 -24 26 -44 43 -44 38z"/>
<path d="M219 2114 c-13 -14 -38 -34 -55 -45 -18 -11 -35 -26 -38 -35 -8 -20
6 -12 70 43 28 24 57 43 63 43 7 0 9 5 6 10 -10 16 -20 12 -46 -16z"/>
<path d="M125 2070 c-10 -11 -13 -20 -8 -20 13 0 38 29 31 35 -3 3 -13 -4 -23
-15z"/>
<path d="M69 2063 c-13 -15 -12 -15 9 -4 23 12 28 21 13 21 -5 0 -15 -7 -22
-17z"/>
<path d="M53 2006 c-21 -19 -32 -36 -25 -36 7 0 10 -4 7 -10 -13 -21 16 -9 47
20 25 22 29 29 16 30 -10 0 -18 -4 -18 -9 0 -5 -8 -12 -17 -15 -11 -4 -6 5 11
19 15 15 26 28 23 31 -3 3 -23 -10 -44 -30z"/>
<path d="M1430 2037 c0 -2 15 -16 33 -33 l32 -29 -29 33 c-28 30 -36 37 -36
29z"/>
<path d="M1557 1999 c4 -38 1 -49 -14 -60 -11 -8 -22 -21 -25 -30 -4 -9 20 8
53 39 64 61 74 75 32 44 l-28 -20 -12 36 -12 37 6 -46z"/>
<path d="M785 2010 c-3 -5 -1 -10 4 -10 6 0 11 5 11 10 0 6 -2 10 -4 10 -3 0
-8 -4 -11 -10z"/>
<path d="M336 1988 c3 -5 10 -6 15 -3 13 9 11 12 -6 12 -8 0 -12 -4 -9 -9z"/>
<path d="M859 1963 c-13 -16 -12 -17 4 -4 9 7 17 15 17 17 0 8 -8 3 -21 -13z"/>
<path d="M1301 1947 c2 -1 13 -9 24 -17 19 -14 19 -14 6 3 -7 9 -18 17 -24 17
-6 0 -8 -1 -6 -3z"/>
<path d="M455 1920 c4 -14 8 -32 9 -40 1 -9 5 -20 9 -26 3 -6 9 -30 13 -53 4
-25 10 -39 16 -33 12 12 -7 94 -33 140 -14 27 -18 30 -14 12z"/>
<path d="M0 1919 c0 -5 5 -7 10 -4 5 3 10 8 10 11 0 2 -4 4 -10 4 -5 0 -10 -5
-10 -11z"/>
<path d="M1571 1914 c0 -11 3 -14 6 -6 3 7 2 16 -1 19 -3 4 -6 -2 -5 -13z"/>
<path d="M1387 1883 c23 -21 61 -58 83 -83 23 -25 36 -35 29 -24 -24 37 -94
108 -124 127 -22 14 -19 9 12 -20z"/>
<path d="M160 1860 c20 -13 33 -13 25 0 -3 6 -14 10 -23 10 -15 0 -15 -2 -2
-10z"/>
<path d="M395 1830 c-5 -15 -4 -25 4 -28 6 -2 9 -7 6 -12 -6 -10 32 -102 46
-111 6 -3 11 -10 10 -15 0 -5 6 -8 13 -8 8 1 12 -6 9 -17 -6 -22 12 -26 21 -4
3 8 10 15 16 15 7 0 8 -6 1 -18 -6 -10 -6 -24 -1 -32 5 -8 6 -19 3 -25 -4 -7
-2 -7 5 0 6 6 14 22 17 37 5 21 2 30 -19 43 -14 9 -28 26 -31 36 -4 11 -12 19
-18 18 -28 -3 -35 4 -52 64 -9 34 -18 67 -20 72 -1 6 -5 -1 -10 -15z"/>
<path d="M339 1827 c6 -8 7 -18 3 -22 -4 -5 -2 -5 5 -1 14 8 6 36 -9 36 -7 0
-6 -5 1 -13z"/>
<path d="M1513 1806 c4 -22 10 -43 15 -48 6 -6 7 7 2 32 -10 53 -25 67 -17 16z"/>
<path d="M1571 1804 c0 -11 3 -14 6 -6 3 7 2 16 -1 19 -3 4 -6 -2 -5 -13z"/>
<path d="M46 1755 c-3 -9 -11 -13 -17 -9 -8 5 -9 3 -4 -5 6 -10 11 -9 23 3 9
8 13 18 10 21 -3 3 -8 -1 -12 -10z"/>
<path d="M1570 1763 c0 -5 9 -23 20 -40 18 -30 18 -37 -2 -34 -5 0 -8 -6 -8
-14 0 -8 -6 -15 -12 -16 -7 0 -3 -4 8 -9 16 -6 23 -21 28 -54 4 -25 12 -46 17
-46 5 0 7 17 3 40 -4 22 -4 40 0 40 3 0 15 -18 26 -40 11 -22 28 -40 36 -40
13 0 14 -3 4 -15 -7 -8 -9 -22 -6 -31 5 -13 9 -14 21 -4 21 17 19 43 -6 74
-12 15 -19 29 -16 32 10 10 45 -53 75 -136 17 -47 26 -78 19 -69 -7 9 -18 14
-25 11 -7 -2 -21 6 -32 18 l-18 21 -17 -35 c-14 -29 -15 -42 -7 -64 6 -15 10
-53 8 -84 -3 -61 4 -73 22 -35 8 18 10 12 7 -33 -2 -30 2 -62 8 -70 9 -12 9
-13 -3 -2 -8 6 -17 12 -20 12 -10 0 -10 -43 0 -56 7 -7 3 -17 -10 -29 -25 -23
-26 -51 -1 -58 21 -5 33 -60 17 -78 -8 -9 -8 -10 2 -5 18 11 15 -35 -4 -62
-20 -29 -11 -56 17 -49 29 8 46 -38 40 -105 -1 -9 -4 -8 -11 2 -9 13 -11 13
-20 0 -5 -8 -10 -23 -10 -32 0 -10 -4 -18 -10 -18 -5 0 -10 5 -10 11 0 5 -5 7
-10 4 -16 -10 8 -45 30 -45 12 0 20 7 20 18 1 14 3 14 20 -6 11 -14 21 -47 26
-88 4 -40 13 -73 23 -83 10 -10 15 -28 13 -49 -2 -18 1 -39 6 -45 5 -7 10 -36
11 -66 1 -30 9 -70 17 -89 8 -19 14 -41 14 -50 0 -8 10 -48 22 -88 l23 -74
129 0 128 0 -7 78 c-4 42 -11 80 -16 83 -6 3 -7 14 -4 25 4 12 1 11 -8 -5 -14
-24 -15 -24 -25 -4 -6 11 -16 47 -22 79 -5 33 -12 65 -13 73 -2 7 -1 30 3 50
4 21 1 52 -7 75 -7 22 -10 49 -7 60 6 19 5 20 -12 6 -17 -14 -18 -13 -7 1 7 9
10 19 6 23 -4 4 0 4 10 0 9 -3 17 -1 17 4 0 6 16 28 36 49 46 49 55 66 57 111
1 48 -27 92 -59 92 -14 0 -27 7 -31 16 -4 11 -13 13 -33 9 -30 -7 -39 5 -46
58 -3 19 1 27 12 27 8 0 25 10 38 23 l24 24 46 -58 c56 -69 166 -181 166 -170
0 5 -26 35 -57 66 -87 86 -103 112 -96 149 3 17 12 39 21 48 13 16 13 20 -2
43 -24 37 -40 32 -33 -10 4 -26 2 -35 -9 -35 -8 0 -14 -4 -14 -8 0 -18 -85
-12 -110 7 -23 19 -24 20 -7 39 9 10 17 24 17 30 0 7 5 12 11 12 6 0 9 8 7 18
-7 25 23 22 61 -6 29 -21 30 -21 36 -2 12 37 -66 111 -84 81 -13 -21 -57 14
-89 70 -15 27 -33 51 -40 54 -14 5 28 -75 55 -107 10 -11 11 -18 3 -23 -25
-16 -80 88 -80 150 0 26 -5 56 -12 68 -6 12 -24 57 -38 100 l-27 78 40 -38 40
-38 -29 38 c-25 33 -70 67 -88 67 -3 0 6 -17 20 -37 13 -20 27 -48 30 -62 3
-14 14 -52 24 -83 10 -32 15 -58 10 -58 -6 0 -66 123 -90 185 -12 30 -70 96
-80 90 -4 -3 -13 1 -19 9 -9 11 -6 13 14 11 14 -2 23 1 19 6 -3 5 -9 7 -14 4
-4 -3 -20 2 -36 10 -15 7 -31 12 -36 9 -4 -3 -8 -1 -8 4 0 17 13 22 29 9 9 -6
3 3 -12 21 -15 19 -27 42 -27 53 0 10 -4 19 -10 19 -5 0 -10 -3 -10 -7z m355
-631 c-4 -4 -13 2 -21 12 -22 30 -17 43 7 17 12 -12 18 -25 14 -29z m152 -456
c-20 -17 -22 -17 -25 -2 -6 26 17 48 33 33 12 -10 11 -15 -8 -31z"/>
<path d="M0 1730 c0 -5 5 -10 11 -10 5 0 7 5 4 10 -3 6 -8 10 -11 10 -2 0 -4
-4 -4 -10z"/>
<path d="M1645 1700 c10 -11 20 -20 23 -20 3 0 -3 9 -13 20 -10 11 -20 20 -23
20 -3 0 3 -9 13 -20z"/>
<path d="M13 1703 c-8 -2 -13 -21 -12 -41 0 -20 3 -31 6 -25 2 7 4 15 3 19 -1
3 16 17 37 30 l38 23 -30 0 c-16 0 -36 -3 -42 -6z"/>
<path d="M110 1696 c0 -10 28 -13 41 -5 10 6 7 9 -13 9 -16 0 -28 -2 -28 -4z"/>
<path d="M38 1653 c-37 -10 -17 -27 30 -26 6 1 12 -6 12 -14 0 -8 4 -12 10 -8
5 3 7 12 4 20 -4 9 3 18 17 24 22 9 22 10 4 10 -11 1 -30 -6 -43 -14 -20 -14
-21 -14 -16 0 3 8 5 14 3 14 -2 -1 -12 -3 -21 -6z"/>
<path d="M1478 1643 c-10 -2 -18 -8 -18 -12 0 -11 49 -1 56 10 5 9 -8 10 -38
2z"/>
<path d="M0 1543 c0 -69 3 -83 16 -83 8 0 12 5 9 10 -3 6 1 13 10 16 13 5 14
9 4 15 -8 4 -10 11 -6 15 3 4 13 2 20 -4 8 -7 17 -9 20 -5 4 3 7 -1 7 -9 0 -9
-5 -18 -12 -20 -15 -5 -1 -28 18 -28 8 0 12 5 9 10 -3 6 1 10 9 10 23 0 20 8
-15 41 -17 16 -28 33 -24 39 3 6 11 8 16 5 5 -4 9 1 9 11 0 14 2 15 18 3 15
-13 16 -12 3 3 -7 10 -17 15 -22 12 -17 -10 -50 -13 -44 -3 4 5 -1 9 -9 9 -8
0 -20 8 -25 18 -8 12 -10 -5 -11 -65z"/>
<path d="M1335 1569 c-11 -17 1 -21 15 -4 8 9 8 15 2 15 -6 0 -14 -5 -17 -11z"/>
<path d="M570 1540 c0 -21 2 -25 12 -22 6 2 8 -4 5 -12 -4 -9 -2 -18 2 -20 5
-3 7 5 6 17 -1 12 -3 28 -4 35 -1 14 -21 17 -21 2z"/>
<path d="M158 1493 c-29 -5 -36 -25 -18 -53 8 -12 10 -10 10 8 0 13 4 21 9 17
6 -3 15 4 21 15 6 11 9 19 8 19 -2 -1 -15 -4 -30 -6z"/>
<path d="M1720 1471 c0 -29 24 -59 34 -43 7 11 -15 72 -26 72 -4 0 -8 -13 -8
-29z"/>
<path d="M1619 1488 c-6 -18 -7 -128 -1 -124 4 2 9 24 10 48 2 24 5 51 8 61 3
9 1 17 -5 17 -6 0 -11 -1 -12 -2z"/>
<path d="M1965 1440 c11 -5 29 -8 40 -8 16 0 15 2 -5 8 -34 11 -60 11 -35 0z"/>
<path d="M2043 1423 c9 -2 23 -2 30 0 6 3 -1 5 -18 5 -16 0 -22 -2 -12 -5z"/>
<path d="M147 1380 c3 -11 12 -20 19 -20 11 0 10 5 -3 20 -10 11 -18 20 -19
20 -1 0 0 -9 3 -20z"/>
<path d="M1990 1396 c0 -3 9 -10 20 -16 11 -6 20 -8 20 -6 0 3 -9 10 -20 16
-11 6 -20 8 -20 6z"/>
<path d="M1976 1355 c4 -8 11 -15 16 -15 6 0 5 6 -2 15 -7 8 -14 15 -16 15 -2
0 -1 -7 2 -15z"/>
<path d="M2560 1355 c7 -8 17 -15 22 -15 6 0 5 7 -2 15 -7 8 -17 15 -22 15 -6
0 -5 -7 2 -15z"/>
<path d="M187 1348 c-3 -9 1 -22 8 -28 8 -7 13 -16 10 -19 -2 -4 2 -8 10 -8
17 0 18 6 5 27 -6 9 -5 20 3 30 10 13 10 13 -5 2 -13 -10 -17 -10 -20 0 -3 8
-6 7 -11 -4z"/>
<path d="M1562 1278 c-21 -29 -36 -55 -31 -58 5 -3 -1 -21 -13 -40 -17 -29
-18 -32 -3 -20 10 8 29 38 41 67 25 56 48 80 40 41 -23 -109 -33 -185 -20
-153 14 34 42 201 35 208 -5 5 -26 -15 -49 -45z"/>
<path d="M2000 1291 c0 -6 4 -13 10 -16 6 -3 7 1 4 9 -7 18 -14 21 -14 7z"/>
<path d="M50 1283 c0 -6 8 -17 18 -24 16 -13 16 -13 2 6 -8 11 -16 22 -17 24
-2 2 -3 0 -3 -6z"/>
<path d="M2520 1266 c0 -2 8 -10 18 -17 15 -13 16 -12 3 4 -13 16 -21 21 -21
13z"/>
<path d="M2610 1250 c-8 -15 -7 -26 6 -45 9 -14 19 -23 22 -20 3 3 1 10 -6 17
-6 6 -8 24 -5 39 6 34 -2 38 -17 9z"/>
<path d="M2124 1234 c9 -8 16 -22 16 -30 0 -8 5 -13 11 -11 7 1 16 -13 21 -31
5 -19 13 -30 19 -26 6 4 22 -6 35 -22 13 -16 23 -24 24 -18 0 6 -11 21 -24 33
-14 13 -22 29 -20 36 3 7 -4 15 -15 18 -12 3 -24 13 -28 24 -7 19 -32 42 -46
43 -5 0 -1 -7 7 -16z"/>
<path d="M81 1237 c-1 -4 6 -19 15 -32 9 -13 12 -30 8 -37 -5 -10 -4 -10 5 -2
9 8 10 18 3 30 -5 11 -7 26 -5 34 4 12 3 12 -5 1 -8 -11 -10 -11 -15 0 -3 8
-6 10 -6 6z"/>
<path d="M230 1230 c0 -5 5 -10 11 -10 5 0 7 5 4 10 -3 6 -8 10 -11 10 -2 0
-4 -4 -4 -10z"/>
<path d="M2570 1217 c0 -12 31 -59 62 -91 15 -17 28 -25 28 -18 0 6 -12 25
-27 41 -16 16 -36 40 -45 53 -9 13 -17 19 -18 15z"/>
<path d="M1669 1164 c-11 -30 -3 -46 11 -24 10 16 13 50 5 50 -3 0 -10 -12
-16 -26z"/>
<path d="M1 1124 c0 -11 3 -14 6 -6 3 7 2 16 -1 19 -3 4 -6 -2 -5 -13z"/>
<path d="M1624 1126 c-10 -8 -15 -18 -11 -22 4 -4 15 0 24 9 22 21 12 31 -13
13z"/>
<path d="M63 1104 c0 -9 4 -11 12 -4 7 5 14 9 16 7 2 -1 3 0 1 2 -7 11 -29 7
-29 -5z"/>
<path d="M1658 1114 c-5 -4 -8 -19 -8 -33 1 -23 2 -24 11 -8 11 19 9 53 -3 41z"/>
<path d="M20 1090 c-15 -9 -13 -11 12 -14 7 0 13 -12 13 -26 1 -14 7 -35 14
-45 10 -17 10 -14 5 18 -5 32 -4 36 10 31 11 -4 16 -1 15 12 0 11 -3 14 -5 7
-7 -16 -34 -5 -34 13 0 16 -9 18 -30 4z"/>
<path d="M1561 1093 c-1 -6 -4 -20 -7 -30 -5 -17 -5 -17 6 0 6 10 9 23 6 30
-3 9 -5 9 -5 0z"/>
<path d="M2041 1070 c-16 -9 -6 -30 15 -30 15 0 20 25 6 34 -4 2 -14 1 -21 -4z"/>
<path d="M2800 1068 c0 -9 7 -22 17 -29 15 -13 15 -12 3 11 -17 34 -20 36 -20
18z"/>
<path d="M1620 1059 c0 -5 5 -7 10 -4 6 3 10 8 10 11 0 2 -4 4 -10 4 -5 0 -10
-5 -10 -11z"/>
<path d="M1531 994 c-7 -26 -10 -48 -7 -51 5 -5 11 14 21 65 10 49 -1 38 -14
-14z"/>
<path d="M1595 1010 c-3 -5 -1 -10 4 -10 6 0 11 5 11 10 0 6 -2 10 -4 10 -3 0
-8 -4 -11 -10z"/>
<path d="M1621 986 c-7 -8 -10 -19 -8 -23 3 -5 -1 -19 -9 -33 -10 -19 -13 -21
-14 -7 0 22 -20 22 -20 -1 0 -9 10 -22 23 -27 21 -9 23 -7 33 45 13 61 12 67
-5 46z"/>
<path d="M90 979 c0 -5 5 -7 10 -4 6 3 10 8 10 11 0 2 -4 4 -10 4 -5 0 -10 -5
-10 -11z"/>
<path d="M1640 954 c0 -8 5 -12 10 -9 6 3 10 10 10 16 0 5 -4 9 -10 9 -5 0
-10 -7 -10 -16z"/>
<path d="M2 902 c1 -30 5 -41 14 -38 8 3 11 0 7 -9 -3 -8 -10 -12 -17 -8 -6 4
-5 -1 3 -10 7 -9 16 -17 19 -17 3 0 2 3 -1 7 -4 3 0 17 8 30 11 16 12 22 3 21
-6 -2 -18 13 -24 32 l-13 35 1 -43z"/>
<path d="M120 916 c0 -9 5 -16 10 -16 6 0 10 4 10 9 0 6 -4 13 -10 16 -5 3
-10 -1 -10 -9z"/>
<path d="M1502 909 c-10 -15 -11 -24 -3 -32 15 -15 23 -3 19 27 -3 27 -3 27
-16 5z"/>
<path d="M60 834 c0 -8 5 -12 10 -9 6 4 8 11 5 16 -9 14 -15 11 -15 -7z"/>
<path d="M80 811 c0 -5 7 -12 16 -15 14 -5 15 -4 4 9 -14 17 -20 19 -20 6z"/>
<path d="M1412 788 c-19 -19 -12 -78 9 -78 13 0 41 60 35 76 -7 17 -28 18 -44
2z"/>
<path d="M120 746 c0 -2 8 -10 18 -17 15 -13 16 -12 3 4 -13 16 -21 21 -21 13z"/>
<path d="M1528 687 c-21 -25 -29 -29 -36 -18 -7 10 -11 10 -17 1 -4 -6 -14 -9
-22 -6 -10 4 -14 0 -11 -17 2 -15 10 -22 26 -22 13 0 27 -7 31 -14 7 -11 13
-9 27 9 11 12 27 30 36 39 13 13 14 20 5 38 l-12 22 -27 -32z"/>
<path d="M4935 699 c-11 -17 -2 -18 19 -3 17 12 17 14 4 14 -9 0 -20 -5 -23
-11z"/>
<path d="M4976 691 c-4 -5 3 -7 14 -4 23 6 26 13 6 13 -8 0 -17 -4 -20 -9z"/>
<path d="M4795 662 c-13 -5 -21 -17 -22 -34 -2 -26 -1 -26 18 -7 10 10 19 23
19 28 0 5 6 12 13 14 18 8 -4 6 -28 -1z"/>
<path d="M2600 607 c0 -18 42 -57 61 -57 8 0 25 -7 37 -16 12 -8 22 -12 22 -8
0 5 5 3 12 -4 7 -7 20 -12 30 -12 16 0 70 -27 145 -72 34 -20 99 -133 167
-288 21 -47 47 -100 59 -117 l22 -33 95 1 c52 0 90 3 83 5 -7 3 -9 12 -6 20 6
16 -16 81 -53 158 -13 28 -24 57 -24 65 0 8 -3 11 -7 8 -10 -11 -33 13 -33 34
0 11 -3 18 -7 18 -22 -4 -37 4 -76 40 -46 42 -99 73 -195 114 -34 15 -93 46
-130 70 -66 43 -162 87 -188 87 -8 0 -14 -6 -14 -13z"/>
<path d="M5103 603 c9 -2 23 -2 30 0 6 3 -1 5 -18 5 -16 0 -22 -2 -12 -5z"/>
<path d="M4825 560 c6 -24 5 -24 -9 -6 -31 38 -28 5 8 -111 21 -65 44 -143 53
-173 8 -30 23 -64 33 -75 10 -11 37 -59 60 -107 41 -86 43 -88 77 -88 32 0 34
2 30 27 -3 16 -12 42 -21 58 -9 17 -16 40 -16 53 0 12 -4 22 -10 22 -5 0 -10
4 -10 8 0 5 -22 46 -49 91 -35 60 -47 88 -43 108 4 21 2 25 -10 20 -26 -9 -42
33 -29 78 13 48 7 56 -12 19 l-15 -29 -11 45 c-13 52 -35 103 -26 60z"/>
<path d="M40 553 c-22 -8 -40 -34 -40 -57 0 -17 3 -15 19 11 11 17 28 36 38
42 19 11 9 13 -17 4z"/>
<path d="M151 536 c-8 -13 -11 -30 -8 -38 3 -9 7 -7 12 7 3 11 11 28 16 38 5
9 5 17 1 17 -5 0 -14 -11 -21 -24z"/>
<path d="M5165 500 c3 -5 8 -10 11 -10 2 0 4 5 4 10 0 6 -5 10 -11 10 -5 0 -7
-4 -4 -10z"/>
<path d="M2 220 l3 -215 83 -3 c45 -2 82 1 82 5 0 5 -7 19 -16 31 -9 13 -13
31 -9 42 4 13 1 22 -8 26 -8 3 -25 26 -38 52 -13 26 -30 51 -37 55 -7 5 -10
12 -7 17 9 14 -26 174 -41 190 -13 13 -14 -12 -12 -200z"/>
<path d="M263 295 c-3 -9 1 -23 8 -33 27 -33 39 -61 33 -77 -4 -9 0 -21 9 -28
23 -17 67 -106 67 -133 0 -13 5 -24 10 -24 6 0 10 5 10 10 0 7 6 7 20 0 17 -9
20 -8 17 9 -2 11 -6 23 -9 27 -4 3 -3 16 1 28 13 32 13 34 -5 67 -11 21 -21
29 -33 26 -14 -3 -17 1 -13 19 5 26 -42 94 -65 94 -7 0 -16 7 -19 15 -8 19
-23 19 -31 0z m157 -229 c0 -6 -5 -4 -11 4 -9 12 -10 11 -6 -8 3 -12 1 -20 -4
-17 -5 4 -8 17 -7 30 2 18 5 21 15 13 7 -6 13 -16 13 -22z"/>
<path d="M473 64 c0 -8 3 -12 5 -9 3 3 11 0 19 -7 11 -8 12 -7 7 5 -7 21 -31
29 -31 11z"/>
</g>
</svg>
